<?xml version="1.0" encoding="utf-8"?>
<svg viewBox="0 0 500 500" xmlns="http://www.w3.org/2000/svg">
  <rect x="64.781" y="130.474" width="370.437" height="220.802" style="stroke-miterlimit: 1; stroke-width: 0px; paint-order: stroke; stroke: rgb(222, 217, 217); fill: rgb(157, 157, 153);"/>
  <g id="SVGRepo_bgCarrier" stroke-width="0" transform="matrix(1, 0, 0, 1, 1.299279, -14.212653)"/>
  <g id="SVGRepo_tracerCarrier" stroke-linecap="round" stroke-linejoin="round" stroke="#CCCCCC" stroke-width="14.336000000000002" transform="matrix(1, 0, 0, 1, 1.299279, -14.212653)"/>
  <g id="SVGRepo_iconCarrier" transform="matrix(1, 0, 0, 1, -6, -6.000999)">
    <g>
      <path class="st0" d="M 470.531 378.938 C 470.562 378.516 470.672 378.094 470.672 377.657 L 470.672 129.657 C 470.672 116.782 460.125 106.251 447.266 106.251 L 64.734 106.251 C 51.875 106.251 41.343 116.782 41.343 129.657 L 41.343 377.657 C 41.343 378.095 41.452 378.516 41.484 378.938 L 0 378.938 L 0 385.329 C 0 396.548 9.188 405.751 20.406 405.751 L 491.562 405.751 C 502.812 405.751 512 396.548 512 385.329 L 512 378.938 L 470.531 378.938 Z M 440.25 355.114 L 71.75 355.114 L 71.75 136.672 L 440.25 136.672 L 440.25 355.114 Z" style="fill: rgba(0, 0, 0, 0.73);"/>
    </g>
  </g>
  <path d="M 242.073 262.591 L 280.095 224.569 L 273.914 218.523 L 242.073 250.366 L 225.95 234.243 L 219.904 240.289 L 242.073 262.591 Z M 250 291.88 C 242.655 291.88 235.713 290.47 229.176 287.648 C 222.637 284.827 216.926 280.975 212.045 276.094 C 207.164 271.213 203.312 265.502 200.491 258.963 C 197.669 252.426 196.259 245.484 196.259 238.139 C 196.259 230.705 197.669 223.719 200.491 217.18 C 203.312 210.641 207.164 204.953 212.045 200.117 C 216.926 195.28 222.637 191.452 229.176 188.63 C 235.713 185.808 242.655 184.398 250 184.398 C 257.434 184.398 264.42 185.808 270.959 188.63 C 277.498 191.452 283.186 195.28 288.022 200.117 C 292.859 204.953 296.687 210.641 299.509 217.18 C 302.331 223.719 303.741 230.705 303.741 238.139 C 303.741 245.484 302.331 252.426 299.509 258.963 C 296.687 265.502 292.859 271.213 288.022 276.094 C 283.186 280.975 277.498 284.827 270.959 287.648 C 264.42 290.47 257.434 291.88 250 291.88 Z M 250 283.819 C 262.718 283.819 273.512 279.364 282.379 270.451 C 291.247 261.539 295.681 250.768 295.681 238.139 C 295.681 225.421 291.247 214.627 282.379 205.76 C 273.512 196.892 262.718 192.458 250 192.458 C 237.371 192.458 226.6 196.892 217.688 205.76 C 208.775 214.627 204.32 225.421 204.32 238.139 C 204.32 250.768 208.775 261.539 217.688 270.451 C 226.6 279.364 237.371 283.819 250 283.819 Z M 250 238.139 Z" style="fill: rgb(57, 229, 63);"/>
</svg>